# xmcd
#
# Track frame offsets: 
#        150
#        13007
#        25016
#        37469
#        47491
#        58515
#        71160
#        84639
#        96641
#        108876
#        117563
#        128139
#        138902
#        151117
#        160486
#        171228
#        181275
#        191778
#        200514
#        211934
#        225584
#        237846
#        252132
#        265218
#        276516
#        286851
#        299871
#        311896
#        325033
#        333865
#
# Disc length: 4585 seconds
#
# Revision: 1
# Processed by: cddbd v1.5.2PL0 Copyright (c) Steve Scherf et al.
# Submitted via: ExactAudioCopyFreeDBPlugin 1.0
#
DISCID=c911e71e
DTITLE=Various Artist - We're Gonna Rock, We're Gonna Roll
DYEAR=2005
DGENRE=Rock
TTITLE0=Jackie Brenston - Rocket 88
TTITLE1=The Treniers - Rockin' is Our Bizness
TTITLE2=The Midnighters - Work with Me Annie
TTITLE3=The Crows - Gee
TTITLE4=The Chords - Sh-Boom
TTITLE5=Willy and Ruth - Love Me
TTITLE6=The Robins - Riot in Cell Block Number 9
TTITLE7=Bill Haley and His Comets - Crazy Man Crazy
TTITLE8=Fats Domino - Please Don't Leave Me
TTITLE9=Jimmy Cavello - Rock the Joint
TTITLE10=Merrill E. Moore - The House of Blue Lights
TTITLE11=Hardrock Gunter - Gonna Dance All Night
TTITLE12=Rudy Grayzell - There's Gonna Be a Ball
TTITLE13=Elvis Presley - Blue Moon of Kentucky
TTITLE14=Jimmie Logsdon - My Sweet French Baby
TTITLE15=Dub Dickerson - My Gal Gertie
TTITLE16=Bill Haley and His Comets - Real Rock Drive
TTITLE17=Charlie and Ray - I Love You Madly
TTITLE18=Bill Haley and His Comets - Shake Rattle and Roll
TTITLE19=The Drifters - Money Honey
TTITLE20=Smiley Lewis - Blue Monday
TTITLE21=Laverne Baker - Tweedle Dee
TTITLE22=Ruth Brown - Teardrops from My Eyes
TTITLE23=Bunny Paul - Such a Night
TTITLE24=The Treniers - Rock a Beatin' Boogie
TTITLE25=Faye Adams - Shake a Hand
TTITLE26=Big Joe Turner - Honey Hush
TTITLE27=Ruth Brown - Mama He Treats Your Daughter Mean
TTITLE28=Elvis Presley - That's All Right
TTITLE29=Bill Haley and His Comets - Rock Around the Clock
EXTD=
EXTT0=
EXTT1=
EXTT2=
EXTT3=
EXTT4=
EXTT5=
EXTT6=
EXTT7=
EXTT8=
EXTT9=
EXTT10=
EXTT11=
EXTT12=
EXTT13=
EXTT14=
EXTT15=
EXTT16=
EXTT17=
EXTT18=
EXTT19=
EXTT20=
EXTT21=
EXTT22=
EXTT23=
EXTT24=
EXTT25=
EXTT26=
EXTT27=
EXTT28=
EXTT29=
PLAYORDER=
